<svg xmlns="http://www.w3.org/2000/svg" viewBox="0 0 64 64" fill="none">
  <rect x="9" y="11" width="46" height="42" rx="10" fill="#FBFCFD" stroke="#D9E0EA" stroke-width="2"/>
  <rect x="9" y="17" width="46" height="10" fill="#E7EBF2"/>
  <path d="M22 11h4v8h-4V11Zm16 0h4v8h-4V11Z" fill="#1E1E1E"/>
  <rect x="15" y="24" width="34" height="22" rx="4" fill="#FFFFFF"/>
  <path d="M32 47c6.075 0 11-4.925 11-11s-4.925-11-11-11-11 4.925-11 11 4.925 11 11 11Z" fill="#111827"/>
  <path d="M29.8 39.6c0-1.5.8-2.3 2.4-2.7l1.4-.4c.9-.2 1.2-.6 1.2-1.2 0-.8-.7-1.3-1.8-1.3-1.1 0-1.9.5-2.1 1.4l-2.1-.6c.3-1.8 1.9-3 4.3-3 2.5 0 4.2 1.3 4.2 3.3 0 1.6-.8 2.6-2.5 3l-1.4.4c-.9.2-1.3.6-1.3 1.2v.1h4.8v2.1h-7.1v-1.8Z" fill="#F7FAFF"/>
</svg>
