<svg xmlns="http://www.w3.org/2000/svg" viewBox="0 0 64 64" fill="none">
  <rect x="8" y="10" width="48" height="44" rx="10" fill="#F4F6FB" stroke="#DBE2F0" stroke-width="2"/>
  <rect x="8" y="18" width="48" height="12" fill="#F1F3F9"/>
  <path d="M20 10h6v8h-6V10Z" fill="#EA4335"/>
  <path d="M38 10h6v8h-6V10Z" fill="#34A853"/>
  <rect x="14" y="26" width="36" height="22" rx="4" fill="#F7F9FD"/>
  <path d="M32 46c6.627 0 12-5.373 12-12S38.627 22 32 22s-12 5.373-12 12 5.373 12 12 12Z" fill="#4285F4"/>
  <path d="M30.4 37.5v-7h-2.1V28h4.5v9.5h-2.4Zm4.1 0V28H37v9.5h-2.5Z" fill="#FDFEFF"/>
</svg>
